<svg width="40" height="40" viewBox="0 0 40 40" fill="none" xmlns="http://www.w3.org/2000/svg">
<path d="M5.58707 0.586182V2.98097C7.39203 2.98097 8.87855 4.34071 9.08029 6.09158L9.10444 6.44848H11.4494C11.4488 5.91274 11.375 4.77999 10.6978 3.57509C10.0958 2.50386 9.30173 1.88253 8.86432 1.58715C8.51681 1.35219 8.00218 1.05892 5.58707 0.586182Z" fill="#54E072"/>
<path d="M17.3117 19.3814V13.5323C17.3117 9.6471 14.1621 6.49756 10.2769 6.49756C6.39169 6.49756 3.24216 9.6471 3.24216 13.5323V15.3921C3.25169 23.1533 6.88194 29.9973 12.6217 34.4369C16.6751 37.5579 21.7527 39.4138 27.2639 39.4138H37.3441C26.2805 39.4138 17.3117 30.445 17.3117 19.3814Z" fill="#FD3501"/>
<path d="M6.85748 7.38354C7.25065 8.90508 8.63251 10.029 10.2769 10.029C11.9213 10.029 13.3033 8.90508 13.6964 7.38347C13.0971 7.07878 11.9684 6.60464 10.4794 6.5647C8.76648 6.51882 7.47216 7.07144 6.85748 7.38354Z" fill="#8AE897"/>
<path d="M11.6839 9.1169C10.1641 9.1169 8.86919 8.15658 8.37121 6.80981C7.70204 6.98553 7.18343 7.21799 6.85748 7.38346C7.25065 8.905 8.63251 10.0289 10.2769 10.0289C11.2885 10.0289 12.2003 9.60316 12.8441 8.92157C12.4807 9.04804 12.0904 9.1169 11.6839 9.1169Z" fill="#54E072"/>
<path d="M28.3063 37.7461C22.7951 37.7461 17.7175 35.8902 13.6641 32.7692C7.92425 28.3296 4.29409 21.4856 4.28455 13.7244V11.8646C4.28455 10.8487 4.50028 9.88331 4.88774 9.01123C3.8609 10.2339 3.24216 11.8108 3.24216 13.5323V15.3921C3.25177 23.1533 6.88186 29.9973 12.6217 34.4369C16.6751 37.5579 21.7527 39.4138 27.2639 39.4138H37.3441C34.4955 39.4138 31.7865 38.8179 29.333 37.7461H28.3063Z" fill="#DD2D00"/>
<path d="M6.75952 11.7737V12.9461" stroke="white" stroke-miterlimit="10"/>
<path d="M9.10446 11.7737V12.9461" stroke="white" stroke-miterlimit="10"/>
<path d="M12.6217 34.4369C16.6751 37.5579 21.7527 39.4138 27.2639 39.4138H37.3441C26.2805 39.4138 17.3117 30.445 17.3117 19.3814V13.5323C17.3117 9.6471 14.1621 6.49756 10.2769 6.49756C6.39169 6.49756 3.24216 9.6471 3.24216 13.5323V15.3921C3.24216 22.663 6.47252 29.1795 11.5764 33.5845" stroke="black" stroke-miterlimit="10" stroke-linejoin="round"/>
<path d="M8.8644 1.58715C7.92886 0.955194 6.80103 0.586182 5.58707 0.586182V2.98097C7.52967 2.98097 9.10444 4.55574 9.10444 6.49834V6.59535" stroke="black" stroke-miterlimit="10" stroke-linejoin="round"/>
<path d="M11.4494 6.59527V6.4484C11.4494 4.87519 10.8297 3.44675 9.82104 2.3938" stroke="black" stroke-miterlimit="10"/>
<path d="M6.85748 7.38362C7.25065 8.90516 8.63251 10.0291 10.2769 10.0291C11.9213 10.0291 13.3033 8.90516 13.6964 7.38354" stroke="black" stroke-miterlimit="10"/>
</svg>
